# xmcd
#
# Track frame offsets: 
#        150
#        15445
#        37784
#        62766
#        75214
#        95741
#        124375
#        149933
#        184841
#        208621
#        224795
#        236426
#        251143
#        283665
#        318589
#
# Disc length: 4629 seconds
#
# Revision: 0
# Processed by: cddbd v1.4PL0 Copyright (c) Steve Scherf et al.
# Submitted via: ExactAudioCopy v0.90b4
#
DISCID=e412130f
DTITLE=Van Morrison - The Genuine Philosophers Stone, disc 3
DYEAR=1975
DGENRE=Celtic
TTITLE0=Domino (harmony version)
TTITLE1=Domino ("rap" version)
TTITLE2=Domino (2nd "rap" version)
TTITLE3=When The Evening Sun Goes Down (jazz version)
TTITLE4=Lorna
TTITLE5=Wild Night
TTITLE6=Friday's Child
TTITLE7=Just Like A Woman
TTITLE8=Dead Or Alive
TTITLE9=Tell Me About Your Love
TTITLE10=Spare Me A Little
TTITLE11=Redwood Tree
TTITLE12=Hard Nose The Highway
TTITLE13=I Just Wanna Make Love To You
TTITLE14=When I Deliver
EXTD=
EXTT0=
EXTT1=
EXTT2=
EXTT3=
EXTT4=
EXTT5=
EXTT6=
EXTT7=
EXTT8=
EXTT9=
EXTT10=
EXTT11=
EXTT12=
EXTT13=
EXTT14=
PLAYORDER=
